#!OML:ASF F:\VICON\USERDATA\INSTALL\rory3\rory3.ASF
:FULLY-SPECIFIED
:DEGREES
157
root 0.941958 17.9351 -2.44494 -3.57471 0.400364 1.28678
lowerback 11.106 -0.263531 -3.61761
upperback 0.717553 -0.760038 0.737927
thorax -5.42469 -0.278404 2.93388
lowerneck -15.7215 -2.96008 -1.44866
upperneck 23.5466 -3.71195 -0.292199
head 10.1225 -1.87951 -0.351952
rclavicle -2.77802e-014 -1.39149e-014
rhumerus -33.156 -25.2713 -75.6014
rradius 24.3939
rwrist 5.27134
rhand -19.6509 20.3477
rfingers 7.12502
rthumb 6.67682 -9.52699
lclavicle -2.77802e-014 -1.39149e-014
lhumerus -24.8508 -2.26759 81.2265
lradius 27.5583
lwrist 5.83819
lhand -26.631 27.5785
lfingers 7.12502
lthumb -0.0637342 57.5582
rfemur -31.3855 -0.804156 20.3481
rtibia 46.138
rfoot -6.11 -9.73948
rtoes -4.8209
lfemur 1.56433 -3.0745 -26.6481
ltibia 24.8406
lfoot -19.2041 0.247897
ltoes -3.54477
158
root 0.936799 17.9269 -2.27144 -3.46263 0.438203 1.42243
lowerback 10.9076 -0.321417 -3.83894
upperback 0.696719 -0.85334 0.803565
thorax -5.32441 -0.320295 3.13918
lowerneck -15.7225 -2.89392 -1.50519
upperneck 23.5106 -3.60387 -0.290721
head 10.1104 -1.83476 -0.327261
rclavicle 5.97596e-015 -8.94531e-015
rhumerus -33.3064 -25.6314 -75.1772
rradius 23.928
rwrist 5.63174
rhand -19.6186 20.4103
rfingers 7.12502
rthumb 6.70803 -9.46349
lclavicle 5.97596e-015 -8.94531e-015
lhumerus -24.6406 -2.21035 81.2022
lradius 28.0487
lwrist 6.55377
lhand -25.9938 30.6189
lfingers 7.12502
lthumb 0.551756 60.5979
rfemur -30.9998 -0.0268042 19.8301
rtibia 43.1256
rfoot -6.76368 -10.0235
rtoes 2.04197
lfemur 2.50781 -3.25653 -26.8335
ltibia 23.9711
lfoot -19.2805 0.209037
ltoes -4.74712
159
root 0.93065 17.9261 -2.10193 -3.375 0.335891 1.51315
lowerback 10.9186 -0.326962 -4.02845
upperback 0.5839 -0.882035 0.881433
thorax -5.44331 -0.324232 3.33442
lowerneck -15.4019 -2.839 -1.63101
upperneck 23.4671 -3.49399 -0.310279
head 10.0354 -1.79911 -0.292765
rclavicle 2.88238e-014 0
rhumerus -33.7235 -25.7287 -74.7723
rradius 23.7705
rwrist 5.873
rhand -19.3629 21.1086
rfingers 7.12502
rthumb 6.95482 -8.75718
lclavicle 2.88238e-014 0
lhumerus -24.4047 -2.14302 81.1723
lradius 28.2734
lwrist 6.82501
lhand -25.7615 31.001
lfingers 7.12502
lthumb 0.776054 60.9793
rfemur -30.8841 0.653119 19.5839
rtibia 39.964
rfoot -6.22658 -10.7094
rtoes 1.26314
lfemur 3.5355 -3.1616 -26.9395
ltibia 22.9717
lfoot -19.2422 0.119799
ltoes -1.03266
160
root 0.923316 17.9247 -1.9334 -3.23824 0.27283 1.72455
lowerback 10.8919 -0.315269 -4.23569
upperback 0.490616 -0.895859 0.826102
thorax -5.52361 -0.322898 3.39623
lowerneck -15.4733 -2.85985 -1.67911
upperneck 23.7543 -3.52226 -0.271816
head 10.1544 -1.81146 -0.279339
rclavicle 9.81499e-016 2.38542e-015
rhumerus -34.1308 -25.6626 -74.6759
rradius 23.8775
rwrist 5.57906
rhand -18.8942 21.3089
rfingers 7.12502
rthumb 7.40725 -8.54145
lclavicle 9.81499e-016 2.38542e-015
lhumerus -23.9644 -2.31561 81.0428
lradius 28.1543
lwrist 6.67548
lhand -27.2789 27.3082
lfingers 7.12502
lthumb -0.689475 57.2868
rfemur -30.8302 1.44268 19.1059
rtibia 36.778
rfoot -7.11971 -11.4771
rtoes 3.17776
lfemur 4.44742 -2.90772 -27.1387
ltibia 22.1472
lfoot -19.0622 0.248254
ltoes -0.686654
161
root 0.910338 17.9227 -1.76389 -3.09087 0.274681 1.71477
lowerback 10.5536 -0.347354 -4.25173
upperback 0.602613 -0.924186 0.810707
thorax -5.21327 -0.346619 3.38532
lowerneck -15.8604 -2.83282 -1.61327
upperneck 23.9017 -3.51364 -0.203244
head 10.2817 -1.79153 -0.273041
rclavicle -2.76808e-014 1.19271e-015
rhumerus -34.014 -25.9441 -74.7188
rradius 23.5706
rwrist 5.36694
rhand -18.3575 21.6128
rfingers 7.12502
rthumb 7.92525 -8.21866
lclavicle -2.76808e-014 1.19271e-015
lhumerus -23.4133 -2.45094 80.8264
lradius 28.62
lwrist 7.12807
lhand -29.1534 24.5268
lfingers 7.12502
lthumb -2.49989 54.4919
rfemur -30.4793 2.57089 18.7021
rtibia 33.397
rfoot -7.45439 -12.2195
rtoes 4.94127
lfemur 5.1692 -2.83774 -27.1077
ltibia 21.5223
lfoot -18.8359 0.41175
ltoes 1.19803
